<?xml version="1.0" encoding="UTF-8"?>
<!-- Generated by Pixelmator Pro 3.4.3 -->
<svg xmlns="http://www.w3.org/2000/svg" width="1em" height="1em" fill="#000" viewBox="0 0 22 16">
    <path fill-rule="evenodd" d="M 18.857143 15.746285 C 18.857143 15.886408 18.970736 16 19.110857 16 L 21.746286 16 C 21.886408 16 22 15.886408 22 15.746285 L 22 0.253715 C 22 0.113592 21.886408 0 21.746286 0 L 19.110857 0 C 18.970736 0 18.857143 0.113592 18.857143 0.253715 Z"/>
    <path fill-rule="evenodd" d="M 12.571428 15.746285 C 12.571428 15.886408 12.68502 16 12.825143 16 L 15.460571 16 C 15.600694 16 15.714286 15.886408 15.714286 15.746285 L 15.714286 6.653714 C 15.714286 6.513592 15.600694 6.4 15.460571 6.4 L 12.825143 6.4 C 12.68502 6.4 12.571428 6.513592 12.571428 6.653714 Z"/>
    <path fill-rule="evenodd" d="M 6.285714 15.746285 C 6.285714 15.886408 6.399306 16 6.539429 16 L 9.174857 16 C 9.31498 16 9.428572 15.886408 9.428572 15.746285 L 9.428572 6.653714 C 9.428572 6.513592 9.31498 6.4 9.174857 6.4 L 6.539429 6.4 C 6.399306 6.4 6.285714 6.513592 6.285714 6.653714 Z"/>
    <path fill-rule="evenodd" d="M -0.006286 2.946285 C -0.006286 3.086409 0.107306 3.2 0.247429 3.2 L 15.460571 3.2 C 15.600694 3.2 15.714286 3.086409 15.714286 2.946285 L 15.714286 0.253715 C 15.714286 0.113592 15.600694 0 15.460571 0 L 0.247429 0 C 0.107306 0 -0.006286 0.113592 -0.006286 0.253715 Z"/>
	<style>
    @media (prefers-color-scheme:dark){:root{filter:invert(100%)}}
    </style>
</svg>
