<?xml version="1.0" encoding="UTF-8"?>
<!-- Generated by Pixelmator Pro 3.4.3 -->
<svg xmlns="http://www.w3.org/2000/svg" width="1em" height="1em" fill="currentColor" viewBox="0 0 16 16">
    <path fill-rule="evenodd" d="M 12.8 15.744 C 12.8 15.885385 12.914615 16 13.056 16 L 15.744 16 C 15.885385 16 16 15.885385 16 15.744 L 16 0.256 C 16 0.114615 15.885385 0 15.744 0 L 13.056 0 C 12.914615 0 12.8 0.114615 12.8 0.256 Z"/>
    <path fill-rule="evenodd" d="M 6.4 15.744 C 6.4 15.885385 6.514615 16 6.656 16 L 9.344 16 C 9.485385 16 9.6 15.885385 9.6 15.744 L 9.6 6.656 C 9.6 6.514615 9.485385 6.4 9.344 6.4 L 6.656 6.4 C 6.514615 6.4 6.4 6.514615 6.4 6.656 Z"/>
    <path fill-rule="evenodd" d="M 0 15.744 C -0 15.885385 0.114615 16 0.256 16 L 2.944 16 C 3.085385 16 3.2 15.885385 3.2 15.744 L 3.2 6.656 C 3.2 6.514615 3.085385 6.4 2.944 6.4 L 0.256 6.4 C 0.114615 6.4 0 6.514615 0 6.656 Z"/>
    <path fill-rule="evenodd" d="M 0 2.944 C -0 3.085385 0.114615 3.2 0.256 3.2 L 9.344 3.2 C 9.485385 3.2 9.6 3.085385 9.6 2.944 L 9.6 0.256 C 9.6 0.114615 9.485385 0 9.344 0 L 0.256 0 C 0.114615 0 0 0.114615 0 0.256 Z"/>
</svg>
